<svg xmlns="http://www.w3.org/2000/svg" viewBox="0 0 512 512" width="512" height="512">
  <defs>
    <linearGradient id="main" x1="0" y1="0" x2="1" y2="1">
      <stop offset="0%" stop-color="#7EC8F8"/>
      <stop offset="100%" stop-color="#3A7BD5"/>
    </linearGradient>
  </defs>

  <rect width="512" height="512" rx="96" fill="#0F151A"/>
  <rect x="4" y="4" width="504" height="504" rx="92" fill="none" stroke="#1E2D3D" stroke-width="3"/>

  <!-- P — 占 x: 120~250, 右边界 250 -->
  <path d="
    M 120 140
    L 120 372
    L 168 372
    L 168 272
    L 192 272
    C 226 272 250 250 250 208
    C 250 166 226 140 192 140
    L 120 140 Z
  " fill="url(#main)"/>

  <path d="
    M 168 176
    L 190 176
    C 208 176 220 188 220 208
    C 220 228 208 240 190 240
    L 168 240
    Z
  " fill="#0F151A"/>

  <!-- S — 占 x: 282~400, 左边界 282, 间隙 32px -->
  <path d="
    M 400 172
    L 322 172
    C 306 172 296 182 296 196
    C 296 212 306 220 326 226
    L 342 232
    C 362 240 372 254 372 272
    C 372 296 354 336 320 336
    L 262 336
    L 262 296
    L 316 296
    C 332 296 336 288 336 276
    C 336 266 328 258 314 252
    L 298 244
    C 274 234 260 220 260 196
    C 260 166 280 140 322 140
    L 400 140
    Z
  " fill="url(#main)"/>
</svg>
