<svg xmlns="http://www.w3.org/2000/svg" viewBox="0 0 512 512" width="512" height="512" role="img" aria-label="Pocket Station">
  <defs>
    <linearGradient id="bg" x1="82" y1="32" x2="430" y2="480" gradientUnits="userSpaceOnUse">
      <stop offset="0" stop-color="#182128"/>
      <stop offset="1" stop-color="#0A0F12"/>
    </linearGradient>
    <linearGradient id="mark" x1="116" y1="150" x2="390" y2="360" gradientUnits="userSpaceOnUse">
      <stop offset="0" stop-color="#35C28F"/>
      <stop offset="0.52" stop-color="#57D6D0"/>
      <stop offset="1" stop-color="#4BA3FF"/>
    </linearGradient>
    <linearGradient id="shine" x1="104" y1="72" x2="408" y2="238" gradientUnits="userSpaceOnUse">
      <stop offset="0" stop-color="#FFFFFF" stop-opacity="0.18"/>
      <stop offset="1" stop-color="#FFFFFF" stop-opacity="0"/>
    </linearGradient>
    <filter id="shadow" x="-10%" y="-10%" width="120%" height="130%">
      <feDropShadow dx="0" dy="16" stdDeviation="18" flood-color="#000000" flood-opacity="0.35"/>
    </filter>
  </defs>

  <rect width="512" height="512" rx="104" fill="url(#bg)"/>
  <rect x="9" y="9" width="494" height="494" rx="96" fill="none" stroke="#2C3841" stroke-opacity="0.72" stroke-width="6"/>
  <path d="M104 76H408C419.046 76 428 84.9543 428 96V122C428 133.046 419.046 142 408 142H104C92.9543 142 84 133.046 84 122V96C84 84.9543 92.9543 76 104 76Z" fill="url(#shine)"/>

  <g filter="url(#shadow)">
    <path
      d="M143 382V165M143 203C159 169 214 156 251 184C293 216 292 288 249 321C215 347 164 338 143 304"
      fill="none"
      stroke="url(#mark)"
      stroke-width="54"
      stroke-linecap="round"
      stroke-linejoin="round"/>
    <path
      d="M382 181C356 156 298 157 286 195C270 247 371 227 370 292C369 338 293 359 252 317"
      fill="none"
      stroke="url(#mark)"
      stroke-width="54"
      stroke-linecap="round"
      stroke-linejoin="round"/>
  </g>

  <circle cx="372" cy="92" r="9" fill="#35C28F"/>
  <circle cx="405" cy="92" r="9" fill="#4BA3FF"/>
</svg>
